HIERARCHY
ROOT Hips
{
  OFFSET -187.679 86.5976 -156.378
  CHANNELS 6 Xposition Yposition Zposition Zrotation Xrotation Yrotation
  JOINT LeftUpLeg
  {
    OFFSET 8.64259 1.95398 -2.38835
    CHANNELS 3 Zrotation Xrotation Yrotation
    JOINT LeftLeg
    {
      OFFSET 43.7702 0 0
      CHANNELS 3 Zrotation Xrotation Yrotation
      JOINT LeftFoot
      {
        OFFSET 40.6238 0 0
        CHANNELS 3 Zrotation Xrotation Yrotation
        JOINT LeftToeBase
        {
          OFFSET 12.7242 0 0
          CHANNELS 3 Zrotation Xrotation Yrotation
          End Site
          {
            OFFSET 0 0 0
          }
        }
      }
    }
  }
  JOINT RightUpLeg
  {
    OFFSET -8.2249 1.95398 -2.59336
    CHANNELS 3 Zrotation Xrotation Yrotation
    JOINT RightLeg
    {
      OFFSET 43.5653 0 0
      CHANNELS 3 Zrotation Xrotation Yrotation
      JOINT RightFoot
      {
        OFFSET 40.6238 0 0
        CHANNELS 3 Zrotation Xrotation Yrotation
        JOINT RightToeBase
        {
          OFFSET 12.7242 0 0
          CHANNELS 3 Zrotation Xrotation Yrotation
          End Site
          {
            OFFSET 0 0 0
          }
        }
      }
    }
  }
  JOINT Spine
  {
    OFFSET 0.165834 0.87714 6.61349
    CHANNELS 3 Zrotation Xrotation Yrotation
    JOINT Spine1
    {
      OFFSET 7.38963 1.71661e-005 0
      CHANNELS 3 Zrotation Xrotation Yrotation
      JOINT Spine2
      {
        OFFSET 11.9445 1.14441e-005 0
        CHANNELS 3 Zrotation Xrotation Yrotation
        JOINT Spine3
        {
          OFFSET 14.7254 4.19617e-005 0
          CHANNELS 3 Zrotation Xrotation Yrotation
          JOINT Spine4
          {
            OFFSET 10.9679 0 0
            CHANNELS 3 Zrotation Xrotation Yrotation
            JOINT RightShoulder
            {
              OFFSET 2.46616 -1.6653 3.69651
              CHANNELS 3 Zrotation Xrotation Yrotation
              JOINT RightArm
              {
                OFFSET 13.0012 0 0
                CHANNELS 3 Zrotation Xrotation Yrotation
                JOINT RightForeArm
                {
                  OFFSET 28.7848 1.52588e-005 0
                  CHANNELS 3 Zrotation Xrotation Yrotation
                  JOINT RightHand
                  {
                    OFFSET 26.5688 1.52588e-005 0
                    CHANNELS 3 Zrotation Xrotation Yrotation
                    End Site
                    {
                      OFFSET 0 0 0
                    }
                  }
                }
              }
            }
            JOINT LeftShoulder
            {
              OFFSET 2.38034 -1.29275 -3.7523
              CHANNELS 3 Zrotation Xrotation Yrotation
              JOINT LeftArm
              {
                OFFSET 16.3182 6.10352e-005 0
                CHANNELS 3 Zrotation Xrotation Yrotation
                JOINT LeftForeArm
                {
                  OFFSET 27.0901 0 0
                  CHANNELS 3 Zrotation Xrotation Yrotation
                  JOINT LeftHand
                  {
                    OFFSET 24.5451 1.52588e-005 0
                    CHANNELS 3 Zrotation Xrotation Yrotation
                    End Site
                    {
                      OFFSET 0 0 0
                    }
                  }
                }
              }
            }
            JOINT Neck
            {
              OFFSET 5.0226 -0.0266342 0
              CHANNELS 3 Zrotation Xrotation Yrotation
              JOINT Head
              {
                OFFSET 6.69363 2.86102e-005 0
                CHANNELS 3 Zrotation Xrotation Yrotation
                End Site
                {
                  OFFSET 0 0 0
                }
              }
            }
          }
        }
      }
    }
  }
}
MOTION
Frames:	14
Frame Time:	0.0416667
-293.671 91.8667 304.044 104.04 37.9414 86.2504 -166.265 -19.0773 100.573 -43.4069 28.9827 10.1996 64.2179 3.11192 1.83423 20.4329 -1.37455 -4.68973 176.843 17.3418 98.1199 -39.1061 7.01747 3.29494 65.5184 -1.71718 2.75505 19.8868 -1.46604 0.191234 -0.507741 7.86015 -90.3802 11.1502 -1.18719 -0.640897 -0.520379 -1.21422 -0.588027 -23.0572 -0.939689 -0.968076 -3.04459 -0.939671 -0.968071 90.3157 -46.5334 -100.957 35.5555 -10.8939 3.29707 -14.3727 -1.17596 -2.74227 -8.89112 0.113901 -6.84942 -88.9672 -45.096 79.4713 -19.7791 20.651 -17.971 11.2746 -2.8444 -17.4973 -7.68385 0.112494 -8.48094 2.0472 2.14226 -3.65012 5.24648 2.71781 0.564094 
-286.405 92.8783 298.998 106.344 35.6895 85.4037 -166.963 -7.18759 102.269 -60.7845 27.7237 8.57139 55.9138 -1.17648 -0.145489 9.55749 -7.15392 -1.22585 177.299 9.01421 98.7792 -38.8831 2.52743 2.78371 70.0437 -2.91093 -1.35285 22.7882 -1.15089 0.635468 0.0380671 8.16909 -90.3616 10.5346 -0.090281 -0.711176 -1.1365 -0.121494 -0.706516 -23.6704 0.127623 -0.705429 -3.65771 0.12764 -0.705428 90.0573 -46.7516 -101.313 33.9155 -13.0196 -0.0809105 -14.39 -3.07242 -6.97326 -8.69791 0.164809 -7.61459 -88.3014 -44.7561 80.453 -25.555 19.3861 -10.3449 11.7902 0.0744195 -16.4702 -1.72655 -0.102565 -3.59101 5.21953 1.33688 -3.71971 5.06145 2.12985 1.90431 
-281.309 94.3291 294.877 104.463 40.2825 84.9072 -172.72 9.45005 96.2851 -69.3134 23.1397 8.47363 66.6605 4.21907 2.29994 8.4235 -6.19839 -3.94677 176.542 3.70401 97.168 -34.4485 7.48603 3.62935 72.7299 -3.62405 1.47933 22.5557 -1.52409 1.5974 0.130921 8.03719 -90.2158 10.801 0.161193 -0.443685 -0.870035 0.141503 -0.450358 -23.4046 0.287069 -0.374735 -3.39192 0.28708 -0.374736 89.7124 -47.2006 -101.746 30.1313 -16.2327 -4.61229 -15.4339 -8.60157 -13.1766 -9.03933 0.0336168 -5.72362 -88.0406 -44.4355 80.8016 -29.3739 21.1258 -3.91486 11.1098 0.453312 -13.8741 -2.62677 -0.0923924 -1.3807 4.46964 -0.741965 -4.37138 6.9754 0.405827 4.19322 
-275.825 95.3867 289.362 103.28 40.1038 82.7058 -175.642 18.5223 90.0203 -56.2912 13.1571 5.53251 70.8897 5.84724 0.564631 9.11618 -8.61258 1.02903 175.198 -3.31468 93.4898 -29.1463 7.52657 2.67788 74.9437 -4.05743 3.7945 23.7204 -1.29074 1.50123 0.664287 8.08264 -89.8548 10.7094 1.38985 0.161125 -0.960818 1.39558 0.0997874 -23.5011 1.27716 0.571449 -3.48848 1.27715 0.571441 89.6132 -47.0244 -101.948 24.9577 -17.6044 -11.1195 -15.9992 -9.39669 -15.7029 -11.1266 -0.0497874 -4.6668 -87.6214 -43.1879 81.221 -33.0929 19.2002 2.6677 10.1587 -2.79763 -13.2373 -3.04013 -0.0926272 -2.76132 4.95541 -2.13972 -4.3244 7.16305 -0.862602 5.06012 
-270.131 95.0063 283.991 102.867 38.2271 81.1339 -177.048 19.9359 87.3897 -30.2794 10.2865 2.90882 63.3005 2.60443 -0.716721 16.355 -6.30057 2.88836 173.863 -9.2917 90.4321 -26.6578 4.86161 1.27666 78.2344 -4.83264 4.66231 24.4972 -0.456114 -0.632787 1.01959 8.22059 -89.7002 10.43 2.16854 0.404796 -1.2392 2.18426 0.308906 -23.7861 1.94658 1.03804 -3.77345 1.94659 1.03803 89.826 -45.5318 -101.995 19.2192 -18.9294 -19.4366 -16.47 -11.3925 -17.2439 -11.0344 -0.195115 -3.05782 -87.4093 -45.0046 81.92 -33.7463 14.9551 9.98688 10.8756 -2.10109 -15.1599 -4.2344 -0.129958 -1.52904 6.18249 -1.65706 -0.0386539 7.39594 -1.30961 3.38262 
-263.275 93.4842 277.587 103.243 37.0722 80.5665 -179.577 16.7375 86.3947 -8.32738 6.13194 4.2146 60.9296 2.10428 -2.65896 14.9375 -6.82629 2.6547 171.62 -17.568 87.7268 -23.0832 2.51015 1.07135 80.6568 -5.81335 3.84646 26.5211 -0.448452 0.342449 1.16948 8.33858 -89.6918 10.1935 2.47098 0.402308 -1.47512 2.48624 0.293102 -24.0259 2.23576 1.12668 -4.01325 2.23574 1.12667 88.8795 -45.8738 -103.422 12.0095 -19.146 -26.246 -16.204 -9.88529 -18.4287 -13.0761 -0.203585 -3.25625 -87.7785 -46.8205 81.6864 -33.7451 11.411 15.1224 9.643 -6.69425 -12.8775 -3.85404 -0.115246 -1.96196 6.62305 -0.790622 1.97803 8.61213 -0.903147 2.60463 
-255.414 92.1124 270.311 102.613 34.0851 80.3383 -178.493 20.9695 85.7803 -20.2303 7.42299 3.44106 60.4261 0.564856 -2.50331 13.7154 -7.84168 3.55429 167.512 -23.6033 82.324 -21.8038 -4.38282 0.240589 79.2059 -6.48208 1.08424 31.1733 -0.0349215 1.3716 1.46864 8.33254 -89.575 10.2046 3.1204 0.577539 -1.46269 3.14278 0.439505 -24.0221 2.80248 1.4893 -4.00942 2.80248 1.48929 89.2977 -45.351 -102.894 13.5639 -15.3957 -29.7506 -19.2508 -14.1202 -21.2747 -15.5231 -0.557106 -1.11546 -86.9901 -47.865 83.0983 -33.6017 11.4133 14.8533 9.00178 -10.6929 -5.12178 -4.26638 -0.130523 -1.59686 9.31674 -0.342686 2.48233 7.55742 -0.674531 2.16589 
-247.356 92.609 262.647 101.058 32.3424 79.0785 -176.208 21.4141 83.3438 -31.548 10.0126 1.24525 63.7951 1.82378 -0.190423 9.32033 -9.23198 2.30856 166.651 -20.637 78.8513 -31.8959 -6.24979 -3.05563 66.726 -3.02794 -1.26961 39.8036 0.296137 7.25796 1.41944 8.11063 -89.2278 10.6364 3.18237 1.24515 -1.0311 3.23408 1.10375 -23.585 2.66102 2.14441 -3.57235 2.66102 2.14441 89.041 -44.9533 -103.419 18.4229 -17.4915 -26.8697 -20.6808 -14.7001 -24.919 -14.1626 -0.408941 -1.84149 -87.1991 -47.5264 82.7167 -33.453 11.7873 12.8978 9.08075 -13.8928 -1.73702 -4.12826 -0.125164 -1.69718 9.57228 0.0705398 1.97595 7.03019 -0.248343 1.38291 
-240.602 93.7055 255.723 101.696 33.3444 76.4564 -175.63 16.151 79.9172 -35.0904 11.1224 0.656538 69.9789 5.00369 2.10749 8.56444 -8.9465 1.16254 169.126 -8.19843 77.7343 -55.9612 -7.52201 -5.7932 54.5013 0.654605 0.168775 18.6329 -2.14022 1.40405 0.950336 8.12138 -88.9533 10.609 2.37397 1.86601 -1.06096 2.45378 1.7597 -23.5955 1.70359 2.49306 -3.58285 1.70358 2.49306 88.5244 -45.9658 -103.964 21.2392 -21.3442 -23.5607 -20.2597 -15.3276 -24.9021 -11.2674 -0.143197 -3.6555 -87.94 -45.5212 81.1814 -32.3612 13.703 6.37725 8.76541 -12.8143 -4.4681 -3.36448 -0.101885 -2.43952 8.38178 0.819735 0.275228 7.10264 0.897988 1.82743 
-234.537 95.0534 250.284 101.948 33.4581 77.3116 -175.823 10.1149 79.2676 -34.8851 10.4467 2.19065 73.8176 6.39612 2.06534 9.955 -8.44442 1.3979 174.216 3.13117 82.5641 -67.3909 -4.25302 -6.22298 62.0701 -1.80777 -1.00221 24.7327 -2.19706 4.76645 0.555078 8.09551 -89.1354 10.6688 1.50366 1.58108 -1.0021 1.57179 1.51337 -23.533 0.959062 1.95979 -3.52032 0.959052 1.95979 87.8645 -46.666 -104.81 23.9063 -22.1556 -18.689 -19.7492 -16.4365 -23.3385 -11.5958 -0.221106 -2.87322 -87.8591 -45.561 81.317 -27.1377 14.5189 -3.91319 9.26308 -9.44852 -9.52716 -0.55417 -0.0565674 -2.48304 5.95963 1.85518 -0.165755 6.99749 1.98445 1.67247 
-228.082 96.5638 244.523 102.831 33.858 78.6885 -176.732 0.895289 80.3578 -30.2118 9.6018 4.99276 75.8888 6.77607 1.28248 13.5659 -7.37304 2.51806 178.099 11.8609 86.602 -61.2693 5.29934 -5.30692 69.4777 -4.22599 -0.606732 24.1248 -2.01234 3.89634 0.284911 8.16477 -89.3835 10.5445 0.850969 1.15308 -1.12664 0.900897 1.11452 -23.659 0.465084 1.35548 -3.64633 0.465101 1.35549 87.5747 -47.4829 -105.027 27.4405 -20.5761 -11.3248 -18.3348 -13.425 -21.3223 -10.954 -0.0867842 -4.35719 -87.7881 -44.8856 81.2963 -21.023 14.4865 -15.9493 10.2004 -6.2909 -14.0273 0.296238 -0.0370566 -2.34986 4.18399 2.1742 -2.51743 6.39949 2.68717 1.44565 
-221.706 96.8841 240.001 102.327 37.6443 81.4422 -175.583 -4.80409 83.5574 -27.9637 14.332 6.57697 78.5885 8.2754 0.893317 13.3948 -7.07234 1.75277 179.513 17.4501 92.0732 -44.1068 7.66148 -2.82032 69.0704 -4.2676 -0.767586 23.0839 -1.422 1.55759 -0.317512 8.15795 -89.6747 10.5584 -0.482895 0.689346 -1.11272 -0.452093 0.709916 -23.6474 -0.667739 0.51235 -3.63473 -0.667736 0.512343 86.707 -49.1036 -105.89 28.3958 -19.909 -5.66219 -16.7872 -12.1047 -17.6645 -9.99685 -0.0992184 -4.01259 -88.2481 -42.5294 80.0591 -15.9024 13.6599 -26.0016 10.433 -6.3973 -18.7917 -1.34849 -0.0828021 -3.41196 3.21874 1.93061 -5.98671 7.25767 3.12815 2.70072 
-214.862 96.1313 234.359 102.772 41.1316 81.4769 -174.413 -11.9533 85.7733 -25.3471 16.8983 7.44992 81.964 9.91904 -0.213428 15.1745 -6.85817 2.93716 178.748 18.3515 92.4482 -22.4036 5.40626 -0.143642 62.673 -2.40606 1.80837 25.0157 -1.63606 3.25983 -0.753673 8.25372 -89.7614 10.3704 -1.39207 0.595404 -1.29999 -1.36453 0.656107 -23.841 -1.50667 0.149416 -3.82834 -1.50667 0.149414 86.554 -50.2737 -105.779 29.7477 -18.0994 0.0792373 -15.6817 -11.5529 -15.0119 -11.0132 -0.160928 -3.42988 -89.0496 -40.7979 78.3415 -11.8148 9.94261 -34.8543 12.6426 -1.62063 -22.3118 2.09316 -0.0555797 -3.38778 2.97226 1.22326 -8.90928 7.77137 3.03561 3.95847 
-207.14 94.2354 228.006 102.732 43.5233 82.0512 -171.487 -18.8458 89.7292 -23.6759 20.5629 7.4575 85.4426 11.855 -0.843084 14.9277 -7.21498 3.45798 177.803 17.475 94.1256 -9.62828 10.3058 3.35779 59.1914 -1.29361 0.278438 29.7019 -0.282898 1.55711 -1.08623 8.24868 -89.9314 10.3811 -2.13245 0.322523 -1.28814 -2.11619 0.416096 -23.8372 -2.13075 -0.333576 -3.82455 -2.13075 -0.333579 86.379 -50.9046 -105.859 30.7315 -17.3098 4.61868 -14.615 -9.6902 -11.6674 -9.01329 -0.170112 -3.03622 -89.1789 -40.9584 78.1663 -12.8393 4.7966 -39.0818 16.6183 4.99902 -26.2158 4.96917 0.122737 -0.8565 3.35575 1.43154 -8.50062 7.69228 3.13405 3.27127 
